<svg width="32" height="32" viewBox="0 0 32 32" fill="none" xmlns="http://www.w3.org/2000/svg">
<circle cx="16" cy="16" r="16" fill="#021B51"/>
<path d="M12.181 13.3477H9.17322V22.3801H12.181V13.3477Z" fill="white"/>
<path d="M22.052 14.1726C21.4202 13.4829 20.5845 13.138 19.5455 13.138C19.1627 13.138 18.8148 13.1851 18.5018 13.2793C18.1889 13.3735 17.9246 13.5056 17.7088 13.6758C17.4932 13.846 17.3214 14.0039 17.1939 14.1497C17.0727 14.2881 16.9541 14.4494 16.8384 14.6319V13.3475H13.8396L13.8488 13.785C13.855 14.0768 13.858 14.9761 13.858 16.4829C13.858 17.9899 13.8519 19.9556 13.8397 22.3801H16.8384V17.3396C16.8384 17.0298 16.8717 16.7837 16.9386 16.6013C17.0663 16.2912 17.2591 16.0317 17.5175 15.8221C17.7758 15.6123 18.0962 15.5075 18.4792 15.5075C19.0016 15.5075 19.3861 15.6883 19.6322 16.0498C19.8782 16.4113 20.0013 16.9111 20.0013 17.5492V22.3798H23V17.203C22.9997 15.8722 22.684 14.8621 22.052 14.1726Z" fill="white"/>
<path d="M10.6953 9C10.191 9 9.7824 9.14746 9.46938 9.44209C9.1564 9.73678 9 10.1088 9 10.5586C9 11.002 9.1519 11.3728 9.45572 11.6705C9.75945 11.9682 10.1605 12.1171 10.6588 12.1171H10.677C11.1875 12.1171 11.5992 11.9683 11.9121 11.6705C12.225 11.3728 12.3784 11.0022 12.3724 10.5586C12.3663 10.1089 12.2112 9.73678 11.9075 9.44209C11.6038 9.14733 11.1996 9 10.6953 9Z" fill="white"/>
</svg>
