<svg width="170" height="32" viewBox="0 0 170 32" fill="none" xmlns="http://www.w3.org/2000/svg">
<path d="M57.7397 7.45C60.3669 7.45 61.983 8.52087 62.4466 8.86763L64.2071 5.68222C63.2832 4.98871 61.059 3.71387 57.5112 3.71387C51.0169 3.71387 46.7166 8.2591 46.7166 14.1676C46.7166 20.0454 50.9901 24.5941 57.5112 24.5941C61.1498 24.5941 63.2832 23.3498 64.2071 22.6529L62.4735 19.4981C61.9527 19.8449 60.3669 20.8579 57.7397 20.8579C53.5266 20.8579 50.812 18.1927 50.812 14.1404C50.812 10.0847 53.5535 7.45 57.7397 7.45Z" fill="white"/>
<path d="M74.975 12.2894C73.9939 11.3919 72.6064 10.7562 70.8459 10.7562C67.1805 10.7562 64.3785 13.7377 64.3785 17.6778C64.3785 21.6179 67.0932 24.5993 70.7586 24.5993C72.7206 24.5993 74.1653 23.729 75.1463 22.5154L75.2908 24.3409H78.6404V11.0146H75.1463L74.975 12.2894ZM71.5951 21.1487C69.66 21.1487 68.1884 19.6427 68.1884 17.6744C68.1884 15.6754 69.66 14.2 71.5951 14.2C73.6748 14.2 75.0019 15.6482 75.0019 17.6744C75.0321 19.6733 73.6748 21.1487 71.5951 21.1487Z" fill="white"/>
<path d="M86.2867 13.7954C87.7582 13.7954 89.1726 14.3156 90.3553 15.0703L91.857 12.2622C90.6744 11.4497 88.6519 10.7562 86.3707 10.7562C83.0211 10.7562 80.8272 12.4084 80.8272 14.9547C80.8272 17.5894 83.3402 18.5447 85.5912 19.0954C87.3517 19.4999 87.9867 19.8195 87.9867 20.513C87.9867 21.2065 87.4088 21.5567 86.3136 21.5567C84.496 21.5567 82.8195 20.8632 81.8116 20.1085L80.2527 22.9165C81.6369 23.8718 83.6292 24.5959 85.9406 24.5959C89.8076 24.5959 91.857 22.8281 91.857 20.2818C91.857 17.4738 89.5758 16.6613 87.4122 16.1412C85.4199 15.6788 84.7278 15.4476 84.7278 14.7813C84.7278 14.1116 85.3359 13.7954 86.2867 13.7954Z" fill="white"/>
<path d="M109.089 24.5994C108.229 24.5994 107.513 23.9806 107.359 23.1647C107.359 23.1579 107.355 23.1511 107.355 23.1443C107.349 23.1137 107.345 23.0831 107.342 23.0526C107.339 23.005 107.335 22.9608 107.332 22.937V22.6752C107.332 22.6752 107.332 22.6752 107.332 22.6718V16.9809C107.332 13.2448 104.879 10.7563 101.355 10.7563C99.6214 10.7563 98.3514 11.3648 97.5451 12.2045V3.65796H93.7621V24.3342H97.5451V17.3855C97.5451 15.6177 98.7008 14.1695 100.606 14.1695C102.339 14.1695 103.549 15.5021 103.549 17.501V22.8656H103.552C103.579 25.915 106.048 28.3797 109.096 28.3797C109.099 28.3797 109.102 28.3797 109.106 28.3797V24.5994C109.099 24.5994 109.092 24.5994 109.089 24.5994Z" fill="white"/>
<path d="M125.978 10.7529C121.994 10.7529 118.792 13.7344 118.792 17.6745C118.792 21.6146 121.997 24.596 125.978 24.596C129.963 24.596 133.165 21.6146 133.165 17.6745C133.165 13.7344 129.963 10.7529 125.978 10.7529ZM125.978 21.1488C124.073 21.1488 122.602 19.6156 122.602 17.6745C122.602 15.7639 124.073 14.2001 125.978 14.2001C127.914 14.2001 129.355 15.7639 129.355 17.6745C129.358 19.6156 127.914 21.1488 125.978 21.1488Z" fill="white"/>
<path d="M142.636 10.7529C140.355 10.7529 138.708 11.9972 138.248 13.6188L138.104 11.0113H134.956V24.3308H138.739V17.6473C138.739 15.7639 140.039 14.3735 142.145 14.3735C142.75 14.3735 143.099 14.4891 143.472 14.6352L143.792 10.8719C143.442 10.7835 143.039 10.7529 142.636 10.7529Z" fill="white"/>
<path d="M151.499 14.2C152.883 14.2 153.807 14.6929 154.415 15.0975L155.943 12.2316C155.164 11.6809 153.692 10.7562 151.065 10.7562C146.909 10.7562 143.761 13.7954 143.761 17.6778C143.761 21.5873 146.822 24.5993 151.065 24.5993C153.692 24.5993 155.107 23.6134 155.917 23.0933L154.415 20.2546C153.81 20.6592 152.913 21.1521 151.441 21.1521C149.16 21.1521 147.632 19.7039 147.632 17.6778C147.632 15.6516 149.187 14.2 151.499 14.2Z" fill="white"/>
<path d="M170 17.705C170 13.7071 167.403 10.7562 163.389 10.7562C159.32 10.7562 156.461 13.7954 156.461 17.6778C156.461 21.5873 159.548 24.5993 163.765 24.5993C166.795 24.5993 168.442 23.4978 169.251 22.7737L167.692 20.0507C167.115 20.513 166.103 21.4105 164.171 21.4105C162.092 21.4105 160.62 20.2512 160.187 18.718H169.943C169.943 18.718 170 18.1945 170 17.705ZM160.214 16.2839C160.647 14.6317 161.887 13.7649 163.533 13.7649C165.035 13.7649 166.217 14.7779 166.392 16.2839H160.214Z" fill="white"/>
<path d="M114.636 9.65479C114.636 7.65583 115.906 6.87393 117.206 6.87393C118.1 6.87393 118.564 7.16289 118.822 7.30908L120.267 4.47043C119.632 4.03528 118.533 3.42676 116.773 3.42676C113.02 3.42676 110.856 5.74187 110.856 9.45081V11.0146H109.015V14.2H110.856V22.8418H110.853C110.846 23.8072 110.07 24.5891 109.109 24.5993V28.3763C112.157 28.3695 114.629 25.8946 114.643 22.8384H114.639V14.2H118.624V11.0146H114.639V9.65479H114.636Z" fill="white"/>
<path d="M31.3695 11.1812C31.2418 11.4838 30.9529 11.681 30.6304 11.6844C30.627 11.6844 30.627 11.6844 30.627 11.6844H21.0183L12.6796 20.1221H10.4152L20.1246 10.2973C20.2758 10.1477 20.4808 10.0628 20.6857 10.0628H28.6952L20.3531 1.6216H2.73828L11.3088 10.2973C11.6213 10.6135 11.6213 11.1302 11.3122 11.4464L2.73828 20.1221H10.4118C10.0893 20.1221 9.80034 20.3193 9.67267 20.6252C9.54836 20.9278 9.61891 21.2746 9.84737 21.5057L10.0792 21.7403H0.799743C0.477214 21.7403 0.184921 21.5431 0.060613 21.2372C-0.0636953 20.9312 0.00685802 20.5844 0.238676 20.3533L9.61219 10.8685L0.238676 1.38363C0.00685802 1.15586 -0.0636953 0.8091 0.060613 0.503138C0.188281 0.197176 0.477214 0 0.799743 0H20.6824C20.8907 0 21.0956 0.0849895 21.2468 0.234571L30.963 10.0628L31.1948 10.2973C31.4233 10.5353 31.4938 10.8787 31.3695 11.1812Z" fill="white"/>
<path d="M40.985 31.2998C40.8573 31.6058 40.565 31.8029 40.2425 31.8029H20.3532C20.1449 31.8029 19.9399 31.7179 19.7921 31.5684L10.0826 21.7436L9.85079 21.509C9.62233 21.2778 9.55178 20.9311 9.67609 20.6285C9.80376 20.3226 10.0927 20.1254 10.4152 20.1254H20.0239L28.3626 11.6842H30.6271C30.6304 11.6842 30.6304 11.6842 30.6304 11.6842L20.9209 21.509C20.7597 21.6654 20.5615 21.7436 20.3532 21.7436H12.347L20.6891 30.1847H38.3073L29.7334 21.509C29.5822 21.356 29.5016 21.152 29.5016 20.9345C29.5016 20.7169 29.5856 20.5129 29.7334 20.3599L38.3073 11.6842H30.6304C30.953 11.6808 31.2419 11.4836 31.3696 11.1811C31.4905 10.8785 31.4233 10.5352 31.1949 10.2972L30.963 10.0626H40.2391C40.5617 10.0626 40.8539 10.2598 40.9816 10.5624C41.1059 10.8683 41.0354 11.2151 40.8069 11.4497L31.4334 20.9345L40.8069 30.4193C41.0354 30.6505 41.1059 30.9972 40.985 31.2998Z" fill="white"/>
</svg>
